# AST/ASF file generated using VICON BodyLanguage
# -----------------------------------------------
:version 1.10
:name VICON
:units
  mass 1.0
  length 0.45
  angle deg
:documentation
   .ast/.asf automatically generated from VICON data using
   VICON BodyBuilder and BodyLanguage model FoxedUp or BRILLIANT.MOD
:root
   order TX TY TZ RX RY RZ
   axis XYZ
   position 0 0 0  
   orientation 0 0 0 
:bonedata
  begin
     id 1 
     name lhipjoint
     direction 0.653368 -0.678499 0.335782 
     length 2.51848 
     axis 0 0 0  XYZ
  end
  begin
     id 2 
     name lfemur
     direction 0.34202 -0.939693 0  
     length 6.57749  
     axis 0 0 20  XYZ
    dof rx ry rz
    limits (-160.0 20.0)
           (-70.0 70.0)
           (-60.0 70.0)
  end
  begin
     id 3 
     name ltibia
     direction 0.34202 -0.939693 0   
     length 7.94618   
     axis 0 0 20   XYZ
    dof rx
    limits (-10.0 170.0)
  end
  begin
     id 4 
     name lfoot
     direction 0.0811271 -0.222895 0.971461   
     length 2.31339   
     axis -90 7.62852e-016 20   XYZ
    dof rx rz
    limits (-45.0 90.0)
           (-70.0 20.0)
  end
  begin
     id 5 
     name ltoes
     direction 1.53568e-011 -4.21885e-011 1   
     length 1.15935   
     axis -90 7.62852e-016 20   XYZ
    dof rx
    limits (-90.0 20.0)
  end
  begin
     id 6 
     name rhipjoint
     direction -0.640058 -0.688614 0.340788   
     length 2.48149  
     axis 0 0 0  XYZ 
  end
  begin
     id 7 
     name rfemur
     direction -0.34202 -0.939693 0   
     length 6.57875   
     axis 0 0 -20   XYZ
    dof rx ry rz
    limits (-160.0 20.0)
           (-70.0 70.0)
           (-70.0 60.0)
  end
  begin
     id 8 
     name rtibia
     direction -0.34202 -0.939693 0   
     length 7.977   
     axis 0 0 -20   XYZ
    dof rx
    limits (-10.0 170.0)
 end
 begin
     id 9 
     name rfoot
     direction -0.0979793 -0.269196 0.958089   
     length 2.19857  
     axis -90 -7.62852e-016 -20   XYZ
    dof rx rz
    limits (-45.0 90.0)
           (-20.0 70.0)
  end
  begin
     id 10 
     name rtoes
     direction -1.53556e-011 -4.21868e-011 1   
     length 1.09838   
     axis -90 -7.62852e-016 -20   XYZ
    dof rx
    limits (-90.0 20.0)
  end
  begin
     id 11 
     name lowerback
     direction 0.0149039 0.998517 -0.0523597   
     length 2.10809   
     axis 0 0 0   XYZ
    dof rx ry rz
    limits (-20.0 45.0)
           (-30.0 30.0)
           (-30.0 30.0)
  end
  begin
     id 12 
     name upperback
     direction -0.00882659 0.999418 -0.0329624   
     length 2.1102   
     axis 0 0 0   XYZ
    dof rx ry rz
    limits (-20.0 45.0)
           (-30.0 30.0)
           (-30.0 30.0)
  end
  begin
     id 13 
     name thorax
     direction -0.0165585 0.999826 -0.0085833   
     length 2.11039   
     axis 0 0 0   XYZ
    dof rx ry rz
    limits (-20.0 45.0)
           (-30.0 30.0)
           (-30.0 30.0)
  end
  begin
     id 14 
     name lowerneck
     direction -0.0130877 0.999911 0.00260353   
     length 1.73253   
     axis 0 0 0   XYZ
    dof rx ry rz
    limits (-20.0 45.0)
           (-30.0 30.0)
           (-30.0 30.0)
  end
  begin
     id 15 
     name upperneck
     direction -0.0348454 0.928205 -0.370435   
     length 1.66692   
     axis 0 0 0   XYZ
    dof rx ry rz
    limits (-20.0 45.0)
           (-30.0 30.0)
           (-30.0 30.0)
  end
  begin
     id 16
     name head
     direction -0.00807754 0.992494 -0.122026  
     length 1.72765  
     axis 0 0 0   XYZ
    dof rx ry rz
    limits (-20.0 45.0)
           (-30.0 30.0)
           (-30.0 30.0)
  end
  begin
     id 17 
     name lclavicle
     direction 0.987582 0.144023 0.0627671  
     length 3.49235  
     axis 0 0 0   XYZ
    dof ry rz
    limits (-20.0 10.0)
           (0.0 20.0)
  end
  begin
     id 18 
     name lhumerus
     direction 1 -4.48958e-011 -1.45183e-018   
     length 5.41917   
     axis 180 -30 -90   XYZ
    dof rx ry rz
    limits (-60.0 90.0)
           (-90.0 90.0)
           (-90.0 90.0)
  end
  begin
     id 19
     name lradius
     direction 1 -4.48999e-011 5.75106e-027   
     length 2.44373   
     axis 180 -30 -90   XYZ
    dof rx
    limits (-10.0 170.0)
  end
  begin
     id 20
     name lwrist
     direction 1 -4.48987e-011 1.53461e-026   
     length 1.22186   
     axis -1.09697e-014 90 90   XYZ
    dof ry
    limits (-180.0 0.0)
 end
  begin
     id 21 
     name lhand
     direction 1 -4.48881e-011 3.06923e-026   
     length 0.727502   
     axis -1.95843e-014 90 90   XYZ
    dof rx rz
    limits (-90.0 90.0)
           (-45.0 45.0)
  end
  begin
     id 22 
     name lfingers
     direction 1 -4.48907e-011 6.13845e-026   
     length 0.586531   
     axis -3.91686e-014 90 90   XYZ
    dof rx
    limits (0.0 90.0)
  end
  begin
     id 23
     name lthumb
     direction 0.707107 -6.3487e-011 0.707107   
     length 0.842145   
     axis -90 45 2.85299e-015   XYZ
    dof rx rz
    limits (-45.0 45.0)
           (-45.0 45.0)
  end
  begin
     id 24 
     name rclavicle
     direction -0.980998 0.169556 0.0943023   
     length 3.29272  
     axis 0 0 0   XYZ 
    dof ry rz
    limits (-10.0 20.0)
           (-20.0 0.0)
  end
  begin
     id 25 
     name rhumerus
     direction -1 -1.83355e-005 2.45537e-005  
     length 5.58976   
     axis 180 30 90   XYZ
    dof rx ry rz
    limits (-90.0 60.0)
           (-90.0 90.0)
           (-90.0 90.0)
  end
  begin
     id 26 
     name rradius
     direction -1 -4.48967e-011 5.97228e-027   
     length 2.4806   
     axis 180 30 90   XYZ
    dof rx
    limits (-10.0 170.0)
  end
  begin
     id 27 
     name rwrist
     direction -1 -4.48963e-011 1.53461e-026   
     length 1.2403   
     axis -1.09697e-014 -90 -90   XYZ
    dof ry
    limits (-180.0 0.0)
  end
  begin
     id 28
     name rhand
     direction -1 -4.48881e-011 3.06923e-026   
     length 0.816009   
     axis -1.95843e-014 -90 -90   XYZ
    dof rx rz
    limits (-90.0 90.0)
           (-45.0 45.0)
  end
  begin
     id 29
     name rfingers
     direction -1 -4.49018e-011 6.13845e-026   
     length 0.657887   
     axis -3.91686e-014 -90 -90   XYZ
    dof rx
    limits (0.0 90.0)
  end
  begin
     id 30
     name rthumb
     direction -0.707107 -6.34872e-011 0.707107   
     length 0.944599   
     axis -90 -45 -2.85299e-015   XYZ
    dof rx rz
    limits (-45.0 45.0)
           (-45.0 45.0)
  end
:hierarchy
  begin
    root lhipjoint rhipjoint lowerback
    lhipjoint lfemur
    lfemur ltibia
    ltibia lfoot
    lfoot ltoes
    rhipjoint rfemur
    rfemur rtibia
    rtibia rfoot
    rfoot rtoes
    lowerback upperback
    upperback thorax
    thorax lowerneck lclavicle rclavicle
    lowerneck upperneck
    upperneck head
    lclavicle lhumerus
    lhumerus lradius
    lradius lwrist
    lwrist lhand lthumb
    lhand lfingers
    rclavicle rhumerus
    rhumerus rradius
    rradius rwrist
    rwrist rhand rthumb
    rhand rfingers
  end

#!OML:ASF F:\VICON\USERDATA\INSTALL\rory3\rory3.ASF
:FULLY-SPECIFIED
:DEGREES
1
root 0.0402018 16.4322 -9.63242 26.4812 -31.3339 -0.0989619
lowerback -16.433 1.89153 -5.98108
upperback -10.1354 3.10251 -0.494982
thorax -1.94465 1.75828 3.278
lowerneck -12.5911 3.6725 2.94854
upperneck 34.0823 3.67717 2.03291
head 13.6503 2.17099 0.828749
rclavicle -2.79914e-014 1.2921e-014
rhumerus -62.7558 26.4375 -108.531
rradius 27.1274
rwrist -29.6574
rhand 25.6038 3.79986
rfingers 7.12502
rthumb 49.715 -17.5713
lclavicle -2.79914e-014 1.2921e-014
lhumerus -62.5145 -32.7567 110.645
lradius 36.178
lwrist 20.9061
lhand 24.9807 20.7985
lfingers 7.12502
lthumb 49.1434 42.4596
rfemur -23.4164 -11.4624 29.1217
rtibia 48.0248
rfoot 32.125 -26.422
rtoes 12.9107
lfemur -46.9845 4.78006 -35.7214
ltibia 38.7541
lfoot -39.6772 27.0286
ltoes 18.9085
2
root 0.0430292 16.4339 -9.63264 26.1394 -31.262 0.21404
lowerback -16.1521 1.82017 -6.189
upperback -10.0292 3.02543 -0.553793
thorax -1.97906 1.7276 3.31264
lowerneck -12.4356 3.69417 3.05746
upperneck 33.8853 3.72506 1.9238
head 13.5356 2.19152 0.766013
rclavicle -5.55417e-014 -3.53837e-014
rhumerus -63.1133 26.9014 -109.133
rradius 27.5836
rwrist -30.0393
rhand 25.3565 4.36959
rfingers 7.12502
rthumb 49.4883 -17.1177
lclavicle -5.55417e-014 -3.53837e-014
lhumerus -63.291 -33.7719 111.906
lradius 36.5116
lwrist 21.4001
lhand 24.2146 20.357
lfingers 7.12502
lthumb 48.4391 42.3623
rfemur -23.2013 -11.5234 28.8711
rtibia 48.0798
rfoot 30.6657 -27.9549
rtoes 16.939
lfemur -46.651 4.71943 -35.9779
ltibia 38.5638
lfoot -39.3978 27.2846
ltoes 18.4184
3
root 0.0441441 16.4358 -9.63644 26.3672 -31.6789 0.105861
lowerback -16.2499 1.91615 -6.24478
upperback -10.0231 3.16437 -0.544561
thorax -1.94097 1.79864 3.37605
lowerneck -12.4551 3.73563 3.09642
upperneck 33.7548 3.78799 1.89126
head 13.4851 2.21983 0.753722
rclavicle -6.8677e-014 1.17283e-014
rhumerus -63.5549 27.3107 -109.634
rradius 28.3028
rwrist -30.2421
rhand 24.9837 4.36386
rfingers 7.12502
rthumb 49.1461 -17.2959
lclavicle -6.8677e-014 1.17283e-014
lhumerus -64.0242 -34.601 113.04
lradius 36.907
lwrist 21.5503
lhand 23.5467 19.9988
lfingers 7.12502
lthumb 47.8236 42.2935
rfemur -23.3158 -11.0783 28.7904
rtibia 48.1202
rfoot 29.0575 -29.3703
rtoes 21.114
lfemur -46.9448 4.8405 -35.9856
ltibia 38.6462
lfoot -39.4783 27.5011
ltoes 18.2205
4
root 0.0406197 16.4387 -9.65156 27.1861 -32.6356 -0.363547
lowerback -16.6737 2.14711 -6.34159
upperback -10.105 3.49972 -0.465197
thorax -1.85926 1.97156 3.57564
lowerneck -12.7529 3.80696 3.15284
upperneck 33.7515 3.88055 1.85173
head 13.5525 2.26195 0.74983
rclavicle -2.39349e-014 3.37934e-015
rhumerus -64.1427 27.9529 -110.362
rradius 29.0629
rwrist -30.6775
rhand 24.6273 4.0689
rfingers 7.12502
rthumb 48.8188 -17.7526
lclavicle -2.39349e-014 3.37934e-015
lhumerus -64.1297 -35.0614 113.431
lradius 37.1613
lwrist 21.4305
lhand 24.1475 19.9976
lfingers 7.12502
lthumb 48.3774 42.0324
rfemur -23.9035 -9.95774 28.9133
rtibia 48.1286
rfoot 27.9337 -30.451
rtoes 24.2241
lfemur -47.7881 5.18828 -35.8181
ltibia 38.6663
lfoot -39.8578 27.7352
ltoes 18.5923
5
root 0.0401703 16.4417 -9.66115 27.5298 -32.9799 -0.592364
lowerback -16.7436 2.21735 -6.32312
upperback -10.076 3.59475 -0.439134
thorax -1.80232 2.01675 3.61019
lowerneck -13.0071 3.86214 3.30694
upperneck 33.7132 3.95079 1.73236
head 13.6005 2.29584 0.692541
rclavicle 4.14528e-014 1.19271e-014
rhumerus -64.6059 28.4737 -110.978
rradius 29.8351
rwrist -31.0853
rhand 24.6458 3.57247
rfingers 7.12502
rthumb 48.8358 -18.2408
lclavicle 4.14528e-014 1.19271e-014
lhumerus -63.9894 -35.5066 113.535
lradius 37.2343
lwrist 21.4013
lhand 25.2225 20.1301
lfingers 7.12502
lthumb 49.3654 41.6798
rfemur -24.099 -9.51741 29.0279
rtibia 48.1085
rfoot 26.9892 -31.2699
rtoes 26.2972
lfemur -48.1194 5.36504 -35.7215
ltibia 38.7278
lfoot -40.253 27.4546
ltoes 19.3412
6
root 0.0474481 16.4415 -9.65288 26.998 -32.4258 -0.363606
lowerback -16.2865 2.06151 -6.12809
upperback -9.92319 3.34644 -0.450187
thorax -1.82994 1.88238 3.43914
lowerneck -12.8537 3.90436 3.29615
upperneck 33.594 4.02335 1.73062
head 13.5147 2.32598 0.698422
rclavicle -1.59991e-014 1.19271e-014
rhumerus -65.0004 28.8374 -111.474
rradius 30.4179
rwrist -31.2963
rhand 24.6208 3.34279
rfingers 7.12502
rthumb 48.8128 -18.4817
lclavicle -1.59991e-014 1.19271e-014
lhumerus -64.2973 -35.996 114.106
lradius 37.4796
lwrist 21.754
lhand 25.4263 20.5231
lfingers 7.12502
lthumb 49.5523 41.9778
rfemur -23.5828 -10.221 29.0408
rtibia 48.0409
rfoot 26.9537 -31.0031
rtoes 25.6024
lfemur -47.5427 5.1791 -35.7601
ltibia 38.7317
lfoot -40.2133 27.0558
ltoes 19.6861
7
root 0.0471644 16.4474 -9.6578 27.4991 -33.1004 -0.741554
lowerback -16.5148 2.34004 -5.99105
upperback -9.99457 3.70312 -0.478752
thorax -1.81287 2.0544 3.38828
lowerneck -12.6741 3.97063 3.28138
upperneck 33.5034 4.08815 1.86297
head 13.4326 2.3706 0.756439
rclavicle -6.97299e-016 -1.80894e-014
rhumerus -65.5384 29.2618 -112.32
rradius 30.8625
rwrist -31.7443
rhand 24.1764 3.95094
rfingers 7.12502
rthumb 48.404 -18.0712
lclavicle -6.97299e-016 -1.80894e-014
lhumerus -65.0698 -36.7591 115.118
lradius 37.9006
lwrist 22.1158
lhand 24.9524 20.6542
lfingers 7.12502
lthumb 49.1175 42.3282
rfemur -23.8918 -9.71094 29.148
rtibia 47.963
rfoot 27.5055 -30.6702
rtoes 24.7899
lfemur -47.9365 5.33959 -35.5505
ltibia 38.6602
lfoot -40.6007 27.3153
ltoes 20.1528
8
root 0.0469927 16.4533 -9.65979 27.7687 -33.3873 -0.760542
lowerback -16.7439 2.43478 -5.98224
upperback -9.96249 3.8421 -0.585625
thorax -1.66437 2.11488 3.30325
lowerneck -12.6155 4.03393 3.26586
upperneck 33.3209 4.12096 2.06713
head 13.3354 2.41068 0.838645
rclavicle -1.08022e-013 2.78299e-014
rhumerus -66.0756 29.8906 -113.366
rradius 31.4872
rwrist -32.2941
rhand 23.7571 3.99339
rfingers 7.12502
rthumb 48.0177 -18.2112
lclavicle -1.08022e-013 2.78299e-014
lhumerus -65.9502 -37.7979 116.329
lradius 38.4348
lwrist 22.5951
lhand 24.4752 20.5898
lfingers 7.12502
lthumb 48.6789 42.4795
rfemur -24.1293 -9.51441 29.1089
rtibia 47.8721
rfoot 27.2378 -31.2633
rtoes 25.957
lfemur -48.1856 5.28778 -35.5498
ltibia 38.5436
lfoot -40.8229 27.4015
ltoes 20.4229
9
root 0.0541659 16.4534 -9.64984 26.9808 -32.6942 -0.183102
lowerback -16.1879 2.14532 -6.03539
upperback -9.72578 3.45153 -0.682474
thorax -1.65409 1.91566 3.15859
lowerneck -12.6465 4.08393 3.33567
upperneck 33.2262 4.16235 2.10099
head 13.3033 2.44156 0.844752
rclavicle 5.44994e-014 4.37326e-015
rhumerus -66.5732 30.5286 -114.218
rradius 32.3477
rwrist -32.5943
rhand 23.7388 3.2928
rfingers 7.12502
rthumb 48.0008 -18.9196
lclavicle 5.44994e-014 4.37326e-015
lhumerus -66.8056 -38.5605 117.378
lradius 39.1706
lwrist 23.0574
lhand 23.9993 20.7477
lfingers 7.12502
lthumb 48.2409 42.8473
rfemur -23.5322 -10.3105 28.8924
rtibia 47.7815
rfoot 26.8121 -31.8568
rtoes 26.5694
lfemur -47.4759 5.004 -35.8506
ltibia 38.4787
lfoot -40.3601 27.3655
ltoes 19.4499
10
root 0.0551413 16.4567 -9.65293 27.1569 -32.817 -0.317746
lowerback -16.115 2.14151 -5.97414
upperback -9.74385 3.43211 -0.64666
thorax -1.70741 1.90598 3.15525
lowerneck -12.4998 4.12926 3.42391
upperneck 33.0848 4.2406 2.01337
head 13.2165 2.47475 0.799854
rclavicle -2.64015e-014 1.19271e-015
rhumerus -67.3198 31.2249 -115.174
rradius 33.1872
rwrist -32.7959
rhand 23.701 2.89697
rfingers 7.12502
rthumb 47.9659 -19.3317
lclavicle -2.64015e-014 1.19271e-015
lhumerus -67.0522 -38.7114 117.609
lradius 39.7646
lwrist 22.888
lhand 24.0135 21.1597
lfingers 7.12502
lthumb 48.2539 43.2531
rfemur -23.5844 -10.2216 29.0197
rtibia 47.6884
rfoot 27.151 -31.6003
rtoes 25.9902
lfemur -47.61 5.17515 -35.8226
ltibia 38.4565
lfoot -40.2267 27.3428
ltoes 19.3865
11
root 0.0494071 16.4654 -9.66507 28.3371 -33.9664 -1.01797
lowerback -16.8246 2.51906 -5.93337
upperback -9.93363 3.95093 -0.599987
thorax -1.59691 2.16362 3.28135
lowerneck -12.3634 4.15281 3.37846
upperneck 32.8991 4.2881 2.03619
head 13.1054 2.49331 0.815641
rclavicle 1.25887e-014 -2.88238e-014
rhumerus -67.9454 31.7427 -115.963
rradius 33.8455
rwrist -32.7819
rhand 23.7217 2.93962
rfingers 7.12502
rthumb 47.985 -19.2802
lclavicle 1.25887e-014 -2.88238e-014
lhumerus -67.2099 -38.9842 117.805
lradius 40.2601
lwrist 22.3673
lhand 24.414 21.3241
lfingers 7.12502
lthumb 48.6226 43.2411
rfemur -24.415 -9.2876 29.2374
rtibia 47.5916
rfoot 28.7012 -29.6747
rtoes 22.4463
lfemur -48.7248 5.75655 -35.6514
ltibia 38.5075
lfoot -40.58 27.601
ltoes 19.8568
12
root 0.046926 16.4708 -9.66714 28.591 -34.218 -1.29328
lowerback -16.7569 2.60228 -5.88404
upperback -9.96964 4.0467 -0.533638
thorax -1.68191 2.21488 3.33105
lowerneck -12.306 4.22026 3.31264
upperneck 32.8202 4.37262 2.14226
head 13.0546 2.53647 0.877073
rclavicle -1.58182e-013 -5.68524e-014
rhumerus -68.6704 32.2511 -116.775
rradius 34.5984
rwrist -32.7702
rhand 23.7879 2.98742
rfingers 7.12502
rthumb 48.046 -19.2039
lclavicle -1.58182e-013 -5.68524e-014
lhumerus -68.2309 -39.727 119.005
lradius 40.9853
lwrist 22.4482
lhand 24.3033 21.3127
lfingers 7.12502
lthumb 48.5208 43.2788
rfemur -24.4547 -9.18778 29.3978
rtibia 47.4648
rfoot 29.8295 -27.9373
rtoes 18.435
lfemur -48.9036 5.7697 -35.3955
ltibia 38.5748
lfoot -40.9277 27.6607
ltoes 20.2137
13
root 0.0477062 16.4744 -9.6673 28.7033 -34.3136 -1.53498
lowerback -16.4981 2.67203 -5.71525
upperback -9.97469 4.10111 -0.540748
thorax -1.81124 2.23891 3.22115
lowerneck -12.4523 4.29298 3.38999
upperneck 32.8935 4.4188 2.23929
head 13.1184 2.57873 0.914264
rclavicle 4.29841e-014 4.87022e-014
rhumerus -69.3117 32.6609 -117.609
rradius 35.4086
rwrist -32.8968
rhand 23.5473 2.98651
rfingers 7.12502
rthumb 47.8242 -19.3079
lclavicle 4.29841e-014 4.87022e-014
lhumerus -69.4574 -40.6208 120.342
lradius 41.801
lwrist 22.794
lhand 23.9627 21.3327
lfingers 7.12502
lthumb 48.2071 43.4483
rfemur -24.3278 -9.10397 29.5649
rtibia 47.3626
rfoot 29.4579 -28.2854
rtoes 19.3741
lfemur -48.8985 5.76589 -35.1378
ltibia 38.5877
lfoot -41.124 27.6201
ltoes 20.5242
14
root 0.0473014 16.4765 -9.6671 28.6321 -34.6378 -1.54466
lowerback -16.3389 2.72864 -5.787
upperback -9.84331 4.18387 -0.620171
thorax -1.75938 2.27824 3.18408
lowerneck -12.6455 4.4292 3.53759
upperneck 32.7984 4.5536 2.29592
head 13.1247 2.66359 0.934529
rclavicle 8.80243e-015 -3.18055e-015
rhumerus -69.8856 33.4046 -118.716
rradius 36.0073
rwrist -33.3334
rhand 23.7766 2.97697
rfingers 7.12502
rthumb 48.0356 -19.2192
lclavicle 8.80243e-015 -3.18055e-015
lhumerus -70.0693 -41.3942 121.008
lradius 42.5853
lwrist 23.2227
lhand 23.821 21.4128
lfingers 7.12502
lthumb 48.0766 43.5898
rfemur -24.1427 -8.86581 29.4187
rtibia 47.2762
rfoot 28.111 -29.3893
rtoes 22.2849
lfemur -48.7605 5.70344 -35.0813
ltibia 38.4803
lfoot -41.472 27.7041
ltoes 20.8878
15
root 0.0463864 16.4819 -9.6673 28.5695 -35.0515 -1.41705
lowerback -16.2815 2.77563 -6.042
upperback -9.75665 4.28075 -0.700891
thorax -1.72176 2.33338 3.25326
lowerneck -12.7897 4.54589 3.7655
upperneck 32.7821 4.6963 2.17814
head 13.1624 2.73851 0.875411
rclavicle 4.17572e-014 7.49418e-014
rhumerus -70.7099 34.2182 -119.968
rradius 36.636
rwrist -33.7951
rhand 24.3364 2.7418
rfingers 7.12502
rthumb 48.5512 -19.2097
lclavicle 4.17572e-014 7.49418e-014
lhumerus -70.8375 -42.1457 121.827
lradius 43.4646
lwrist 23.773
lhand 23.2146 21.3047
lfingers 7.12502
lthumb 47.5171 43.7397
rfemur -24.1484 -8.88722 29.1566
rtibia 47.2208
rfoot 28.2728 -28.8525
rtoes 21.2551
lfemur -48.6602 5.42609 -35.0716
ltibia 38.3466
lfoot -42.2086 27.7042
ltoes 21.5271
